<?xml version="1.0" encoding="UTF-8"?>
<svg id="Layer_2" data-name="Layer 2" xmlns="http://www.w3.org/2000/svg" viewBox="0 0 60.8 9.55">
  <g id="Layer_1-2" data-name="Layer 1">
    <g>
      <g>
        <path d="M4.43,4.9c.01.12.2.12.21,0l.63-4.04c.01-.07.01-.15,0-.23-.18-.97-1.6-.75-1.48.23l.63,4.04Z"/>
        <path d="M4.02,5.32c.07.09.22.02.19-.09l-.95-3.36c-.03-.09-.07-.18-.13-.26-.64-.79-1.82.11-1.23.94l2.12,2.78Z"/>
        <path d="M3.63,5.7c.1.05.2-.09.12-.17L1.32,3.05c-.07-.07-.15-.13-.24-.17-.95-.38-1.55.97-.62,1.42l3.17,1.4Z"/>
        <path d="M3.69,6.01l-2.35-.67c-.14-.04-.29-.04-.43,0-1.01.31-.59,1.79.43,1.54l2.35-.66c.1-.02.11-.18,0-.21Z"/>
        <path d="M5.05,5.32c.02-.05,2.42-3.08,2.27-3.04.25-1.01-1.2-1.41-1.51-.42l-.94,3.37c-.03.11.12.19.19.09Z"/>
        <path d="M7.74,3.05l-2.43,2.47c-.08.08.02.22.12.17l3.16-1.4c1.07-.56.04-2.05-.86-1.24Z"/>
        <path d="M7.73,5.36l-2.35.65c-.1.02-.1.19,0,.21l2.35.64c.13.03.27.04.41,0,.98-.31.58-1.75-.42-1.5Z"/>
        <path d="M4.53,5.55c-.27,0-.49.22-.49.49s.22.49.49.49.49-.22.49-.49-.22-.49-.49-.49Z"/>
        <path d="M7.07,8.2l-1.98-1.42c-.09-.1-.25.02-.16.13l.93,1.15c.05.06-.02.14-.08.1l-1.2-.64s-.07-.02-.1,0l-1.2.64c-.07.04-.13-.04-.08-.1l.93-1.15s.03-.09,0-.13c-.04-.06-.12-.05-.17,0,0,0-1.98,1.42-1.98,1.42-.84.64.16,1.84.94,1.13l1.6-1.57c.27.26,1.6,1.58,1.6,1.58.32.32.86.27,1.12-.1.24-.34.16-.8-.18-1.04Z"/>
      </g>
      <g>
        <path d="M13.37,6.17l-.54-1.12h-.02v3.75h-1.14V3.23h1.33l1.53,2.64.53,1.12h.02v-3.75h1.14v5.57h-1.33l-1.53-2.64Z"/>
        <path d="M20.08,8.81c-.21,0-.39-.07-.53-.2-.14-.13-.23-.31-.27-.54h-.05c-.06.27-.21.48-.42.62-.22.14-.49.21-.81.21-.42,0-.74-.11-.97-.33-.22-.22-.34-.52-.34-.88,0-.44.16-.77.48-.98s.76-.32,1.31-.32h.66v-.26c0-.2-.05-.36-.16-.48-.11-.12-.29-.18-.54-.18-.23,0-.42.05-.56.15s-.25.22-.34.34l-.7-.63c.17-.25.38-.45.64-.59.26-.14.61-.21,1.05-.21.6,0,1.04.13,1.34.39.3.26.45.64.45,1.14v1.84h.39v.92h-.65ZM18.45,8.08c.2,0,.37-.04.51-.13.14-.08.21-.22.21-.41v-.49h-.58c-.46,0-.69.16-.69.47v.12c0,.15.05.27.14.34.1.07.23.11.41.11Z"/>
        <path d="M21.13,8.81v-4.19h1.18v.71h.05c.07-.22.21-.41.39-.57.19-.16.44-.24.77-.24.43,0,.76.14.98.43.22.29.33.7.33,1.23v2.63h-1.18v-2.53c0-.27-.04-.47-.13-.6s-.24-.2-.46-.2c-.1,0-.19.01-.28.04-.09.02-.17.06-.24.12s-.13.12-.17.2-.06.17-.06.27v2.72h-1.18Z"/>
        <path d="M26.96,8.81c-.41,0-.72-.1-.93-.31-.21-.21-.32-.51-.32-.91v-2.05h-.59v-.92h.3c.16,0,.27-.04.33-.12.06-.08.09-.19.09-.33v-.69h1.06v1.13h.83v.92h-.83v2.36h.77v.92h-.7Z"/>
        <path d="M30.63,8.1h-.04c-.04.11-.09.21-.15.3-.06.1-.14.18-.24.26-.1.07-.21.13-.34.18-.13.04-.28.06-.45.06-.43,0-.76-.14-.98-.43-.22-.28-.33-.69-.33-1.23v-2.64h1.18v2.53c0,.26.04.45.14.59.09.14.24.21.46.21.09,0,.18-.01.27-.04.09-.03.17-.07.24-.12.07-.05.12-.11.17-.19.04-.07.06-.16.06-.26v-2.72h1.18v4.19h-1.18v-.7Z"/>
        <path d="M34.2,8.9c-.31,0-.59-.05-.84-.16-.24-.1-.45-.25-.61-.44s-.29-.42-.38-.69-.13-.58-.13-.91.04-.64.13-.91c.08-.27.21-.5.38-.69.17-.19.37-.34.61-.44.25-.1.52-.15.84-.15.43,0,.78.1,1.07.29s.49.46.61.81l-.96.42c-.04-.16-.11-.3-.23-.41s-.28-.17-.49-.17c-.24,0-.42.08-.54.24-.12.16-.18.37-.18.63v.78c0,.27.06.48.18.63.12.15.3.23.54.23.21,0,.38-.06.51-.17.12-.11.22-.27.28-.45l.92.4c-.14.4-.35.69-.64.88-.29.19-.64.28-1.06.28Z"/>
        <path d="M36.24,2.9h1.18v3.49h.05l.52-.77.84-1h1.31l-1.4,1.61,1.56,2.59h-1.41l-.94-1.77-.53.59v1.18h-1.18V2.9Z"/>
        <path d="M41.98,8.9c-.32,0-.6-.05-.85-.16-.25-.1-.46-.25-.63-.44s-.3-.42-.39-.69-.13-.58-.13-.91.04-.63.13-.9.21-.5.38-.69.37-.34.62-.44c.24-.1.52-.16.84-.16.35,0,.64.06.89.18.25.12.45.27.61.47.16.2.27.42.34.68.07.26.11.53.11.81v.35h-2.69v.06c0,.27.07.49.22.65.15.16.38.24.7.24.25,0,.45-.05.6-.15.15-.1.3-.21.43-.35l.59.74c-.19.22-.43.39-.73.51-.3.12-.64.18-1.03.18ZM41.96,5.39c-.24,0-.43.08-.56.24-.14.16-.2.37-.2.63v.06h1.47v-.07c0-.26-.06-.46-.17-.62-.12-.16-.29-.24-.53-.24Z"/>
        <path d="M45.79,8.81c-.41,0-.72-.1-.93-.31-.21-.21-.32-.51-.32-.91v-2.05h-.59v-.92h.3c.16,0,.27-.04.33-.12.06-.08.09-.19.09-.33v-.69h1.06v1.13h.83v.92h-.83v2.36h.77v.92h-.7Z"/>
        <path d="M47.65,8.81V3.23h2.22c.5,0,.89.14,1.15.43s.4.67.4,1.17-.13.89-.4,1.17c-.27.29-.65.43-1.15.43h-1.55v2.38h-.67ZM48.33,5.83h1.55c.27,0,.47-.07.62-.21s.22-.34.22-.59v-.42c0-.26-.07-.45-.22-.59-.15-.14-.35-.21-.62-.21h-1.55v2.01Z"/>
        <path d="M51.79,8.81v-4.12h.64v.76h.04c.08-.2.21-.37.4-.53.19-.15.46-.23.79-.23h.25v.64h-.38c-.35,0-.62.07-.81.2s-.29.29-.29.49v2.8h-.64Z"/>
        <path d="M55.68,8.9c-.28,0-.53-.05-.76-.15-.23-.1-.42-.25-.59-.44s-.29-.42-.38-.68c-.09-.26-.14-.56-.14-.89s.05-.62.14-.89c.09-.27.22-.49.38-.68s.36-.33.59-.44.48-.15.76-.15.53.05.75.15.42.25.59.44.29.42.38.68c.09.27.14.56.14.89s-.05.63-.14.89c-.09.26-.22.49-.38.68s-.36.33-.59.44c-.23.1-.48.15-.75.15ZM55.68,8.33c.35,0,.63-.11.85-.32.22-.21.33-.54.33-.97v-.59c0-.44-.11-.76-.33-.97-.22-.21-.5-.32-.85-.32s-.63.11-.85.32-.33.54-.33.97v.59c0,.44.11.76.33.97s.5.32.85.32Z"/>
        <path d="M59.28,8.9c-.38,0-.7-.07-.96-.22-.26-.15-.48-.34-.67-.59l.46-.37c.16.2.34.36.54.47.2.11.43.16.69.16s.48-.06.63-.18c.15-.12.23-.28.23-.5,0-.16-.05-.3-.16-.41-.1-.11-.29-.19-.56-.24l-.33-.05c-.19-.03-.37-.07-.53-.12-.16-.06-.3-.13-.42-.22-.12-.09-.21-.21-.28-.35-.07-.14-.1-.3-.1-.5,0-.2.04-.38.11-.53.07-.15.18-.28.31-.38.13-.1.29-.18.47-.23s.38-.08.58-.08c.34,0,.62.06.84.18.23.12.42.28.59.49l-.42.38c-.09-.13-.22-.24-.4-.35-.18-.1-.4-.16-.66-.16s-.47.06-.6.17c-.14.11-.2.27-.2.47s.07.35.2.44c.14.09.33.16.59.2l.32.05c.46.07.78.2.97.4.19.19.29.45.29.76,0,.4-.14.71-.41.94s-.64.34-1.12.34Z"/>
      </g>
    </g>
  </g>
</svg>