<?xml version="1.0" encoding="UTF-8"?>
<svg id="Layer_2" data-name="Layer 2" xmlns="http://www.w3.org/2000/svg" viewBox="0 0 12.28 12.28">
  <defs>
    <style>
      .cls-1 {
        fill: #fff;
      }
    </style>
  </defs>
  <g id="Layer_1-2" data-name="Layer 1">
    <circle class="cls-1" cx="6.14" cy="6.14" r="6.14"/>
    <g>
      <path d="M6.03,5.88c.01.12.2.12.21,0l.63-4.04c.01-.07.01-.15,0-.23-.18-.97-1.6-.75-1.48.23l.63,4.04Z"/>
      <path d="M5.62,6.29c.07.09.22.02.19-.09l-.95-3.36c-.03-.09-.07-.18-.13-.26-.64-.79-1.82.11-1.23.94l2.12,2.78Z"/>
      <path d="M5.24,6.67c.1.05.2-.09.12-.17l-2.42-2.47c-.07-.07-.15-.13-.24-.17-.95-.38-1.55.97-.62,1.42l3.17,1.4Z"/>
      <path d="M5.3,6.99l-2.35-.67c-.14-.04-.29-.04-.43,0-1.01.31-.59,1.79.43,1.54l2.35-.66c.1-.02.11-.18,0-.21Z"/>
      <path d="M6.66,6.29c.02-.05,2.42-3.08,2.27-3.04.25-1.01-1.2-1.41-1.51-.42l-.94,3.37c-.03.11.12.19.19.09Z"/>
      <path d="M9.35,4.03l-2.43,2.47c-.08.08.02.22.12.17l3.16-1.4c1.07-.56.04-2.05-.86-1.24Z"/>
      <path d="M9.33,6.33l-2.35.65c-.1.02-.1.19,0,.21l2.35.64c.13.03.27.04.41,0,.98-.31.58-1.75-.42-1.5Z"/>
      <path d="M6.14,6.52c-.27,0-.49.22-.49.49s.22.49.49.49.49-.22.49-.49-.22-.49-.49-.49Z"/>
      <path d="M8.68,9.18l-1.98-1.42c-.09-.1-.25.02-.16.13l.93,1.15c.05.06-.02.14-.08.1l-1.2-.64s-.07-.02-.1,0l-1.2.64c-.07.04-.13-.04-.08-.1l.93-1.15s.03-.09,0-.13c-.04-.06-.12-.05-.17,0,0,0-1.98,1.42-1.98,1.42-.84.64.16,1.84.94,1.13l1.6-1.57c.27.26,1.6,1.58,1.6,1.58.32.32.86.27,1.12-.1.24-.34.16-.8-.18-1.04Z"/>
    </g>
  </g>
</svg>